<?xml version="1.0" encoding="iso-8859-1"?>
<!-- Generator: Adobe Illustrator 19.0.0, SVG Export Plug-In . SVG Version: 6.00 Build 0)  -->
<svg version="1.1" id="Layer_1" xmlns="http://www.w3.org/2000/svg" xmlns:xlink="http://www.w3.org/1999/xlink" x="0px" y="0px"
	 viewBox="0 0 356.938 356.938" style="enable-background:new 0 0 356.938 356.938;" xml:space="preserve">
<g>
	<path style="fill:#9CE7F7;" d="M173.024,39.183c0-3.078-2.495-5.573-5.573-5.573s-5.573,2.495-5.573,5.573v2.173
		c-0.042,11.665-2.931,23.143-8.415,33.438c8.834,4.107,19.031,4.107,27.865,0c-5.485-10.295-8.373-21.773-8.415-33.438v-2.173
		H173.024z"/>
	<path style="fill:#9CE7F7;" d="M150.732,41.357v-2.173c0-9.234,7.485-16.719,16.719-16.719s16.719,7.485,16.719,16.719v2.173
		c-0.004,9.506,2.23,18.88,6.52,27.363c13.263-12.85,13.598-34.019,0.748-47.282S157.419,7.84,144.156,20.69
		s-13.598,34.019-0.748,47.282c0.245,0.253,0.495,0.503,0.748,0.748C148.466,60.241,150.719,50.867,150.732,41.357z"/>
	<path style="fill:#9CE7F7;" d="M147.444,132.475L41.725,16.891c-6.508-7.104-17.541-7.587-24.645-1.079
		c-0.224,0.205-0.443,0.417-0.656,0.633c-6.757,6.82-6.757,17.812,0,24.632l103.044,103.044
		C127.779,138.15,137.35,134.165,147.444,132.475z"/>
	<path style="fill:#9CE7F7;" d="M211.032,156.828c0.557,0.669,1.003,1.393,1.561,2.118l58.46-58.46l-14.434-14.434l-58.516,58.516
		C202.935,148.065,207.283,152.188,211.032,156.828z"/>
	<path style="fill:#F78628;" d="M117.295,217.518c12.312,0,22.292,9.98,22.292,22.292s-9.98,22.292-22.292,22.292
		s-22.292-9.98-22.292-22.292S104.983,217.518,117.295,217.518z"/>
	<path style="fill:#F78628;" d="M67.138,202.694c-38.96,9.114-63.155,48.087-54.041,87.047c9.115,38.96,48.087,63.155,87.047,54.041
		c26.741-6.256,47.646-27.094,53.987-53.815c4.3-18.29,15.954-33.996,32.212-43.413c7.221-4.157,13.427-9.868,18.168-16.719
		c5.201-7.459,8.458-16.098,9.474-25.134l0,0l0,0c3.5-30.579-18.452-58.205-49.031-61.705c-1.023-0.117-2.049-0.206-3.077-0.266
		h-3.121c-19.35-0.017-37.323,10.003-47.482,26.472C101.668,185.848,85.757,197.921,67.138,202.694z M96.508,299.44l-39.011-39.011
		l7.858-7.858l39.011,39.011L96.508,299.44z M117.295,206.372c18.467,0,33.438,14.971,33.438,33.438s-14.971,33.438-33.438,33.438
		s-33.438-14.971-33.438-33.438S98.827,206.372,117.295,206.372z"/>
	<path style="fill:#9CE7F7;" d="M282.867,96.529l7.245,7.245c9.363-9.251,34.329-34.274,53.389-53.5l-36.726-36.67L253.33,67.049
		l7.189,7.189L282.867,96.529z M294.013,87.668l-7.858-7.858l11.146-11.146l7.858,7.858L294.013,87.668z M327.451,54.23
		l-11.146,11.146l-7.858-7.858l11.146-11.146L327.451,54.23z M302.875,29.653l7.858,7.858l-11.146,11.146l-7.858-7.858
		L302.875,29.653z M280.583,51.945l7.858,7.858l-11.146,11.146l-7.858-7.858L280.583,51.945z"/>
	<path style="fill:#9CE7F7;" d="M212.815,237.413l74.901,74.845c1.684,1.666,2.131,4.214,1.115,6.353
		c-3.957,8.359-3.957,16.05,0,20.174c3.66,2.945,8.517,3.942,13.041,2.675c7.064-1.66,13.493-5.339,18.502-10.589
		c10.7-10.7,14.267-25.134,7.858-31.543c-3.957-3.957-11.48-4.124-19.617-0.39c-2.162,0.988-4.714,0.496-6.353-1.226l-79.08-82.926
		c-1.927,7.727-5.252,15.036-9.808,21.567L212.815,237.413z"/>
	<path style="fill:#414A52;" d="M117.295,206.372c-18.467,0-33.438,14.971-33.438,33.438s14.971,33.438,33.438,33.438
		s33.438-14.971,33.438-33.438S135.762,206.372,117.295,206.372z M117.295,262.102c-12.312,0-22.292-9.98-22.292-22.292
		s9.98-22.292,22.292-22.292s22.292,9.98,22.292,22.292S129.606,262.102,117.295,262.102z"/>
	<path style="fill:#414A52;" d="M307.89,287.403l-82.424-86.604c0.381-11.071-1.993-22.063-6.91-31.989l60.355-60.467l7.189,7.189
		c0.525,0.527,1.15,0.944,1.839,1.226c0.541,0.261,1.128,0.412,1.728,0.446c2.062,0,5.183-2.564,17.165-14.378l12.707,12.706
		l7.858-7.858l-12.651-12.762l10.031-10.031l9.92-9.976l12.707,12.706l7.858-7.858l-12.707-12.706l12.762-12.818
		c2.161-2.174,2.161-5.684,0-7.858L310.732,1.789c-2.174-2.161-5.684-2.161-7.858,0l-12.818,12.818L277.294,1.844l-7.858,7.858
		l12.762,12.762l-20.006,20.007L249.43,29.709l-7.858,7.858l12.762,12.762l-12.762,12.762c-2.161,2.174-2.161,5.684,0,7.858
		l7.189,7.189l-60.355,60.355c-8.113-4.064-16.968-6.434-26.026-6.966h-0.502L49.973,9.424C39.304-2.216,21.22-3.003,9.58,7.666
		c-0.365,0.335-0.722,0.68-1.07,1.033c-11.012,11.174-11.012,29.119,0,40.293l102.375,102.375c-3.562,3.588-6.703,7.57-9.363,11.87
		c-7.989,14.095-21.3,24.394-36.949,28.589C19.62,202.342-8.299,247.308,2.216,292.263c8.648,36.97,41.124,63.47,79.078,64.523
		h2.564c38.638-0.047,72.208-26.568,81.198-64.145c3.573-15.292,13.29-28.436,26.862-36.336c4.987-2.884,9.577-6.406,13.654-10.477
		l71.612,72.003c-4.291,11.425-2.898,22.292,3.901,29.147c4.465,4.327,10.505,6.643,16.719,6.409c2.19-0.009,4.374-0.233,6.52-0.669
		c9.214-2.083,17.619-6.809,24.187-13.598c15.493-15.437,18.948-36.224,7.913-47.314
		C328.589,284.891,317.445,283.171,307.89,287.403z M306.775,13.603l36.726,36.726c-19.059,19.171-44.027,44.194-53.389,53.5
		l-7.245-7.245l-22.292-22.292l-7.245-7.245L306.775,13.603z M256.619,86.052l14.434,14.434l-58.46,58.46
		c-0.502-0.724-1.003-1.393-1.561-2.118c-3.749-4.64-8.096-8.763-12.929-12.26L256.619,86.052z M16.424,16.501
		c6.754-6.87,17.798-6.964,24.668-0.21c0.217,0.213,0.428,0.432,0.633,0.656l105.886,115.472
		c-10.059,1.724-19.591,5.727-27.865,11.703L16.703,41.078C9.904,34.341,9.78,23.391,16.424,16.501z M186.344,246.664
		c-16.258,9.417-27.912,25.124-32.212,43.413c-9.304,38.915-48.394,62.92-87.309,53.616s-62.92-48.394-53.616-87.309
		c6.374-26.658,27.245-47.436,53.931-53.69c18.526-4.813,34.347-16.859,43.915-33.438c10.158-16.468,28.132-26.489,47.482-26.472
		h3.121c30.732,1.699,54.267,27.989,52.568,58.721c-0.054,0.974-0.133,1.946-0.238,2.916l0,0l0,0
		c-1.016,9.036-4.273,17.675-9.474,25.134c-4.69,7.013-10.9,12.88-18.168,17.165V246.664z M320.485,330.928
		c-5.009,5.25-11.438,8.929-18.502,10.589c-4.524,1.267-9.381,0.27-13.041-2.675c-4.068-4.068-4.124-11.815,0-20.174
		c1.016-2.139,0.569-4.688-1.115-6.353l-74.901-74.901l0.836-1.059c4.557-6.531,7.881-13.84,9.808-21.567l78.969,82.981
		c1.639,1.722,4.191,2.215,6.353,1.226c8.137-3.734,15.66-3.567,19.617,0.39c6.13,6.465,2.675,20.899-8.025,31.599v-0.056H320.485z"
		/>
	<path style="fill:#414A52;" d="M167.451,89.34c24.623,0,44.584-19.961,44.584-44.584S192.074,0.172,167.451,0.172
		s-44.584,19.961-44.584,44.584S142.828,89.34,167.451,89.34z M153.463,75.073c5.485-10.295,8.373-21.773,8.415-33.438v-2.452
		c0-3.078,2.495-5.573,5.573-5.573s5.573,2.495,5.573,5.573v2.173c0.042,11.665,2.931,23.143,8.415,33.438
		C172.615,79.025,162.37,79.127,153.463,75.073z M167.451,11.318c18.467,0.045,33.401,15.051,33.357,33.518
		c-0.022,8.998-3.669,17.608-10.118,23.883c-4.29-8.483-6.524-17.857-6.52-27.363v-2.173c0-9.234-7.485-16.719-16.719-16.719
		s-16.719,7.485-16.719,16.719v2.173c0.004,9.506-2.23,18.88-6.52,27.363c-13.235-12.879-13.523-34.049-0.644-47.284
		C149.844,14.987,158.453,11.34,167.451,11.318z"/>
	<path style="fill:#414A52;" d="M104.496,291.614l-7.881,7.881l-39.012-39.012l7.881-7.881L104.496,291.614z M288.418,59.799
		l-11.152,11.152l-7.881-7.881l11.152-11.152L288.418,59.799z M310.71,37.523l-11.152,11.152l-7.881-7.881l11.152-11.152
		L310.71,37.523z M305.152,76.517L294,87.669l-7.881-7.881l11.152-11.152L305.152,76.517z M327.444,54.242l-11.152,11.152
		l-7.881-7.881l11.152-11.152L327.444,54.242z"/>
	<rect x="345.786" y="145.069" style="fill:#414A52;" width="11.146" height="11.146"/>
	<rect x="323.494" y="145.069" style="fill:#414A52;" width="11.146" height="11.146"/>
	<rect x="301.202" y="145.069" style="fill:#414A52;" width="11.146" height="11.146"/>
	<rect x="323.494" y="167.361" style="fill:#414A52;" width="11.146" height="11.146"/>
	<rect x="301.202" y="167.361" style="fill:#414A52;" width="11.146" height="11.146"/>
	<rect x="278.911" y="167.361" style="fill:#414A52;" width="11.146" height="11.146"/>
</g>
<g>
</g>
<g>
</g>
<g>
</g>
<g>
</g>
<g>
</g>
<g>
</g>
<g>
</g>
<g>
</g>
<g>
</g>
<g>
</g>
<g>
</g>
<g>
</g>
<g>
</g>
<g>
</g>
<g>
</g>
</svg>
