<?xml version="1.0" encoding="iso-8859-1"?>
<!-- Generator: Adobe Illustrator 19.0.0, SVG Export Plug-In . SVG Version: 6.00 Build 0)  -->
<svg version="1.1" id="Capa_1" xmlns="http://www.w3.org/2000/svg" xmlns:xlink="http://www.w3.org/1999/xlink" x="0px" y="0px"
	 viewBox="0 0 511.559 511.559" style="enable-background:new 0 0 511.559 511.559;" xml:space="preserve">
<g>
	<polygon style="fill:#E6E9ED;" points="255.858,163.874 239.869,171.79 215.885,147.806 222.997,138.079 	"/>
	<polygon style="fill:#E6E9ED;" points="256.178,163.874 272.167,171.79 296.15,147.806 289.038,138.079 	"/>
</g>
<path style="fill:#656D78;" d="M287.437,28.122c0,0,32.377-4.551,24.226,47.733l-15.989-23.983c0,0-18.947,7.995-39.738,7.995
	c-20.704,0-40.207-7.995-40.207-7.995l-15.911,23.905l-0.078,0.078c-8.237-87.94,96.012-70.436,96.012-70.436
	C280.239,11.735,287.437,28.122,287.437,28.122z"/>
<g style="opacity:0.2;">
	<path d="M287.437,28.122c0,0,19.846-3.849,17.34,37.396l6.886,10.336C319.814,23.571,287.437,28.122,287.437,28.122z"/>
</g>
<g style="opacity:0.2;">
	<path style="fill:#FFFFFF;" d="M279.467,4.06c-28.972-0.78-85.894,5.926-79.727,71.795l0.078-0.078l7.55-11.344
		C208.429,14.296,251.244,4.81,279.467,4.06z"/>
</g>
<path style="fill:#EAC6BB;" d="M311.897,83.928c0,37.974-34.609,72.989-55.961,72.989c-21.259,0-55.962-35.016-55.962-72.989v-8.073
	l-0.156-0.078l15.911-23.905c0,0,19.503,7.995,40.207,7.995c20.791,0,39.738-7.995,39.738-7.995l15.989,23.983h0.234V83.928z"/>
<g style="opacity:0.2;">
	<path d="M311.663,75.855l-15.989-23.983c0,0-5.238,2.178-13.146,4.263l13.146,19.721h0.234v8.073
		c0,33.508-26.942,64.682-47.951,71.553c2.787,0.913,5.48,1.437,7.979,1.437c21.352,0,55.961-35.016,55.961-72.989v-8.073h-0.234
		V75.855z"/>
</g>
<g style="opacity:0.3;">
	<path style="fill:#FFFFFF;" d="M215.963,83.928v-8.073l-0.156-0.078l13.108-19.697c-7.924-2.061-13.187-4.208-13.187-4.208
		l-15.911,23.905l0.156,0.078v8.073c0,37.974,34.703,72.989,55.962,72.989c2.505,0,5.207-0.523,8.009-1.437
		C242.984,148.611,215.963,117.436,215.963,83.928z"/>
</g>
<path style="fill:#5D9CEC;" d="M351.636,227.752h-191.87v-7.994c0,0,0-13.351,0-26.623c0-13.35,6.714-18.386,19.986-23.343
	c6.551-2.483,18.308-6.878,27.981-11.516l9.353-9.275l22.782,22.789l15.989-7.916l15.989,7.916l22.703-22.703l9.119,9.111
	c9.751,4.715,21.423,9.111,27.981,11.594c13.35,4.957,19.986,9.993,19.986,23.343c0,13.272,0,26.623,0,26.623v7.994H351.636z"/>
<g style="opacity:0.3;">
	<path style="fill:#FFFFFF;" d="M175.756,193.135c0-13.35,6.714-18.386,19.986-23.343c6.55-2.483,18.308-6.878,27.981-11.516
		l1.327-1.312L217.086,149l-9.353,9.275c-9.673,4.637-21.431,9.033-27.981,11.516c-13.272,4.957-19.986,9.993-19.986,23.343
		c0,13.272,0,26.623,0,26.623v7.994h15.989v-7.994C175.756,219.758,175.756,206.407,175.756,193.135z"/>
</g>
<g style="opacity:0.2;">
	<path d="M335.81,193.135c0-13.35-6.714-18.386-19.986-23.343c-6.55-2.483-18.308-6.878-27.98-11.516l-1.327-1.312L294.48,149
		l9.354,9.275c9.673,4.637,21.431,9.033,27.98,11.516c13.272,4.957,19.986,9.993,19.986,23.343c0,13.272,0,26.623,0,26.623v7.994
		h-15.989v-7.994C335.81,219.758,335.81,206.407,335.81,193.135z"/>
</g>
<polygon style="fill:#ED5564;" points="283.76,355.024 269.769,368.617 273.049,387.878 255.779,378.766 238.51,387.878 
	241.789,368.617 227.799,355.024 247.145,352.143 255.779,334.64 264.414,352.143 "/>
<g style="opacity:0.2;">
	<polygon style="fill:#FFFFFF;" points="247.293,383.248 249.784,368.617 235.793,355.024 247.145,352.143 227.799,355.024 
		241.789,368.617 238.51,387.878 	"/>
</g>
<g style="opacity:0.3;">
	<polygon points="264.265,383.248 261.775,368.617 275.765,355.024 264.414,352.143 283.76,355.024 269.769,368.617 
		273.049,387.878 	"/>
</g>
<path style="fill:#FFCE54;" d="M255.779,334.64l-8.635,17.503l-19.346,2.881l13.99,13.593l-3.279,19.261l17.27-9.111l17.269,9.111
	l-3.279-19.261l13.991-13.593l-19.347-2.881L255.779,334.64z M255.779,315.692c26.458,0,47.967,21.501,47.967,47.967
	c0,26.459-21.509,47.968-47.967,47.968c-26.544,0-47.967-21.509-47.967-47.968C207.813,337.193,229.236,315.692,255.779,315.692z"/>
<g style="opacity:0.4;">
	<path style="fill:#FFFFFF;" d="M215.807,363.659c0-25.115,19.308-45.727,43.962-47.764c-1.32-0.109-2.64-0.203-3.99-0.203
		c-26.544,0-47.967,21.501-47.967,47.967c0,26.459,21.423,47.968,47.967,47.968c1.35,0,2.669-0.094,3.99-0.203
		C235.114,409.386,215.807,388.775,215.807,363.659z"/>
</g>
<g style="opacity:0.2;">
	<path d="M296.142,363.659c0,25.116-19.307,45.728-43.961,47.765c1.319,0.109,2.639,0.203,3.989,0.203
		c26.544,0,47.966-21.509,47.966-47.968c0-26.466-21.422-47.967-47.966-47.967c-1.351,0-2.67,0.094-3.989,0.203
		C276.836,317.932,296.142,338.544,296.142,363.659z"/>
</g>
<polygon style="fill:#965353;" points="407.675,227.752 376.338,299.703 359.709,299.703 351.715,299.703 351.715,267.725 
	255.779,267.725 159.767,267.725 159.767,299.703 151.851,299.703 136.502,299.703 103.883,227.752 159.767,227.752 
	351.636,227.752 "/>
<g style="opacity:0.2;">
	<polygon style="fill:#FFFFFF;" points="103.883,227.752 136.502,299.703 143.856,299.703 144.496,299.703 111.878,227.752 	"/>
</g>
<g style="opacity:0.2;">
	<polygon points="408.316,227.752 375.698,299.703 368.343,299.703 367.703,299.703 400.322,227.752 	"/>
</g>
<polygon style="fill:#656D78;" points="191.823,507.561 175.834,507.561 159.845,507.561 143.856,507.561 143.856,491.573 
	159.767,491.573 255.779,491.573 351.715,491.573 367.703,491.573 367.703,507.561 351.715,507.561 335.724,507.561 
	319.736,507.561 303.747,507.561 287.758,507.561 271.768,507.561 255.779,507.561 239.791,507.561 223.801,507.561 
	207.813,507.561 "/>
<path style="fill:#7F4545;" d="M351.715,299.703v191.87h-95.936v-15.99v-47.967v-15.989c26.458,0,47.967-21.509,47.967-47.968
	c0-26.466-21.509-47.967-47.967-47.967v-15.989v-15.989v-15.988h95.935v31.977H351.715z"/>
<path style="fill:#965353;" d="M255.779,475.583v15.99h-96.013v-191.87v-31.978h96.013v15.988v15.989v15.989
	c-26.544,0-47.967,21.501-47.967,47.967c0,26.459,21.423,47.968,47.967,47.968v15.989V475.583z"/>
<g>
	<polygon style="fill:#ED5564;" points="264.172,227.752 248.183,227.752 252.181,175.787 260.175,175.787 	"/>
	<rect x="248.779" y="164.92" style="fill:#ED5564;" width="14.24" height="10.868"/>
</g>
<g style="opacity:0.2;">
	<rect x="159.769" y="267.72" style="fill:#FFFFFF;" width="16.07" height="219.85"/>
</g>
<g style="opacity:0.2;">
	<rect x="335.719" y="267.72" width="16.07" height="219.85"/>
</g>
<g style="opacity:0.2;">
	<rect x="155.849" y="259.57" width="199.86" height="8.322"/>
</g>
<g style="opacity:0.2;">
	<rect x="143.859" y="491.57" style="fill:#FFFFFF;" width="7.995" height="15.988"/>
</g>
<g style="opacity:0.2;">
	<rect x="359.709" y="491.57" width="7.994" height="15.988"/>
</g>
<g>
	<path style="fill:#3A3847;" d="M159.767,223.755c-2.209,0-3.997-1.788-3.997-3.997v-26.623c0-15.599,8.283-21.75,22.586-27.091
		l0.961-0.367c6.597-2.491,17.636-6.66,26.692-11.001c1.96-0.952,4.38-0.125,5.332,1.874c0.953,1.991,0.109,4.38-1.881,5.332
		c-9.361,4.489-20.595,8.736-27.317,11.274l-0.977,0.375c-13.498,5.044-17.402,9.439-17.402,19.604v26.623
		C163.764,221.967,161.977,223.755,159.767,223.755z"/>
	<path style="fill:#3A3847;" d="M351.636,223.755c-2.21,0-3.998-1.788-3.998-3.997v-26.623c0-10.196-3.896-14.591-17.379-19.596
		c-7.144-2.701-18.565-7.019-28.332-11.742c-1.99-0.968-2.818-3.356-1.857-5.34c0.968-1.991,3.349-2.803,5.34-1.858
		c9.446,4.567,20.657,8.807,27.356,11.336c14.583,5.418,22.867,11.555,22.867,27.2v26.623
		C355.633,221.967,353.845,223.755,351.636,223.755z"/>
	<path style="fill:#3A3847;" d="M255.936,160.915c-22.586,0-59.959-35.983-59.959-76.986c0-2.21,1.788-3.998,3.997-3.998
		c2.21,0,3.998,1.788,3.998,3.998c0,35.577,32.416,68.992,51.964,68.992S307.9,119.506,307.9,83.929c0-2.21,1.788-3.998,3.997-3.998
		c2.21,0,3.997,1.788,3.997,3.998C315.894,124.931,278.521,160.915,255.936,160.915z"/>
	<path style="fill:#3A3847;" d="M311.663,79.853c-1.319,0-2.576-0.656-3.325-1.78l-14.217-21.322
		c-6.355,2.303-21.603,7.113-38.185,7.113s-32.188-4.849-38.638-7.136l-14.154,21.259c-0.148,0.226-0.391,0.507-0.578,0.694
		c-1.101,1.093-2.717,1.46-4.185,0.93c-1.452-0.523-2.475-1.843-2.623-3.389c-2.115-22.578,2.779-40.574,14.545-53.495
		C227.408,3.943,255.14,0,275.391,0c12.101,0,20.665,1.421,21.024,1.476c1.765,0.297,3.115,1.726,3.311,3.506
		c0.195,1.78-0.812,3.466-2.467,4.138c-3.412,1.39-5.599,3.373-6.684,6.058c-1.265,3.107-0.812,6.597-0.258,8.869
		c4.084,0.164,12.289,1.483,18.534,8.783c7.612,8.885,9.892,23.57,6.761,43.643c-0.257,1.624-1.482,2.928-3.091,3.287
		C312.233,79.822,311.944,79.853,311.663,79.853z M295.674,47.875c1.305,0,2.569,0.64,3.326,1.78l9.86,14.794
		c0.617-11.984-1.444-21.009-6.073-26.427c-4.474-5.224-10.345-6.004-13.452-6.004c-0.765,0-1.265,0.055-1.366,0.07
		c-1.749,0.164-3.475-0.734-4.192-2.358c-0.164-0.375-3.981-9.244-0.609-17.558c0.562-1.382,1.28-2.663,2.147-3.842
		c-2.857-0.187-6.223-0.335-9.923-0.335c-18.635,0-44.041,3.49-59.178,20.111c-8.057,8.846-12.367,20.666-12.882,35.242
		l9.072-13.694c1.054-1.592,3.076-2.194,4.84-1.483c0.188,0.078,19.065,7.698,38.692,7.698c19.689,0,38.005-7.604,38.185-7.682
		C294.628,47.976,295.151,47.875,295.674,47.875z"/>
	<path style="fill:#3A3847;" d="M311.897,87.926c-2.209,0-3.997-1.788-3.997-3.997v-8.073c0-2.209,1.788-3.997,3.997-3.997
		c2.21,0,3.997,1.788,3.997,3.997v8.073C315.894,86.137,314.107,87.926,311.897,87.926z"/>
	<path style="fill:#3A3847;" d="M199.974,87.926c-2.209,0-3.997-1.788-3.997-3.997v-8.073c0-2.209,1.788-3.997,3.997-3.997
		c2.21,0,3.998,1.788,3.998,3.997v8.073C203.971,86.137,202.184,87.926,199.974,87.926z"/>
	<path style="fill:#3A3847;" d="M239.869,175.787c-1.039,0-2.061-0.406-2.826-1.171l-23.976-23.984
		c-1.569-1.554-1.569-4.083-0.016-5.652c1.562-1.569,4.106-1.562,5.652-0.008l21.962,21.962l13.295-6.582
		c1.538-0.835,3.489-0.624,4.762,0.656c1.562,1.562,1.601,4.052,0.039,5.613c-0.305,0.305-0.741,0.64-1.132,0.835l-15.989,7.917
		C241.079,175.647,240.47,175.787,239.869,175.787z"/>
	<path style="fill:#3A3847;" d="M271.846,175.787c-0.601,0-1.21-0.14-1.772-0.414l-15.988-7.917l3.403-7.237l13.562,6.714
		l21.953-21.954c1.562-1.562,4.092-1.562,5.652,0c1.562,1.562,1.562,4.091,0,5.652l-23.983,23.984
		C273.908,175.382,272.884,175.787,271.846,175.787z"/>
	<path style="fill:#3A3847;" d="M256.178,183.782c-1.022,0-2.045-0.391-2.826-1.171l-7.995-7.995c-1.561-1.562-1.561-4.091,0-5.653
		c1.562-1.561,4.091-1.561,5.653,0l7.994,7.995c1.562,1.562,1.562,4.091,0,5.652C258.222,183.391,257.2,183.782,256.178,183.782z"/>
	<path style="fill:#3A3847;" d="M256.178,183.782c-1.022,0-2.045-0.391-2.826-1.171c-1.562-1.562-1.562-4.091,0-5.652l7.994-7.995
		c1.562-1.561,4.092-1.561,5.652,0c1.562,1.562,1.562,4.091,0,5.653l-7.994,7.995C258.222,183.391,257.2,183.782,256.178,183.782z"
		/>
	<path style="fill:#3A3847;" d="M248.191,223.755c-0.125,0-0.25-0.008-0.367-0.016c-2.202-0.203-3.826-2.146-3.623-4.349
		l3.997-43.97c0.203-2.194,2.295-3.818,4.341-3.615c2.202,0.195,3.826,2.14,3.623,4.341l-3.997,43.971
		C251.978,222.193,250.229,223.755,248.191,223.755z"/>
	<path style="fill:#3A3847;" d="M264.164,223.755c-2.037,0-3.786-1.562-3.974-3.638l-3.997-43.971
		c-0.203-2.201,1.42-4.146,3.623-4.341c2.021-0.21,4.145,1.414,4.34,3.615l3.998,43.97c0.203,2.202-1.421,4.146-3.623,4.349
		C264.414,223.747,264.289,223.755,264.164,223.755z"/>
	<path style="fill:#3A3847;" d="M376.338,303.7c-0.538,0-1.077-0.109-1.593-0.335c-2.029-0.883-2.95-3.232-2.068-5.263
		l28.902-66.353H110.082l30.058,66.298c0.913,2.015,0.023,4.38-1.991,5.294c-1.99,0.905-4.379,0.023-5.285-1.991l-32.618-71.951
		c-0.562-1.233-0.461-2.67,0.281-3.817c0.734-1.14,1.999-1.827,3.357-1.827h303.792c1.352,0,2.607,0.68,3.342,1.804
		c0.742,1.132,0.859,2.553,0.32,3.786L380,301.296C379.343,302.802,377.876,303.7,376.338,303.7z"/>
	<path style="fill:#3A3847;" d="M351.715,495.569c-2.21,0-3.998-1.787-3.998-3.996V271.722H163.764v219.851
		c0,2.209-1.788,3.996-3.998,3.996c-2.209,0-3.997-1.787-3.997-3.996V267.725c0-2.21,1.788-3.998,3.997-3.998h191.948
		c2.209,0,3.997,1.788,3.997,3.998v223.848C355.712,493.782,353.924,495.569,351.715,495.569z"/>
	<path style="fill:#3A3847;" d="M367.703,511.559H143.856c-2.209,0-3.997-1.788-3.997-3.998v-15.988c0-2.21,1.788-3.998,3.997-3.998
		h223.847c2.21,0,3.998,1.788,3.998,3.998v15.988C371.701,509.771,369.913,511.559,367.703,511.559z M147.853,503.564h215.853
		v-7.995H147.853V503.564z"/>
	<path style="fill:#3A3847;" d="M151.851,303.7h-15.349c-2.209,0-3.998-1.787-3.998-3.997c0-2.209,1.788-3.997,3.998-3.997h15.349
		c2.209,0,3.997,1.788,3.997,3.997C155.848,301.913,154.06,303.7,151.851,303.7z"/>
	<path style="fill:#3A3847;" d="M376.338,303.7h-16.629c-2.209,0-3.997-1.787-3.997-3.997c0-2.209,1.788-3.997,3.997-3.997h16.629
		c2.21,0,3.998,1.788,3.998,3.997C380.336,301.913,378.548,303.7,376.338,303.7z"/>
	<path style="fill:#3A3847;" d="M255.779,303.7c-2.209,0-3.997-1.787-3.997-3.997v-15.989c0-2.209,1.788-3.997,3.997-3.997
		c2.209,0,3.998,1.788,3.998,3.997v15.989C259.777,301.913,257.989,303.7,255.779,303.7z"/>
	<path style="fill:#3A3847;" d="M255.779,479.581c-2.209,0-3.997-1.788-3.997-3.998v-47.967c0-2.209,1.788-3.997,3.997-3.997
		c2.209,0,3.998,1.788,3.998,3.997v47.967C259.777,477.793,257.989,479.581,255.779,479.581z"/>
	<path style="fill:#3A3847;" d="M255.779,415.624c-28.652,0-51.964-23.312-51.964-51.965s23.312-51.964,51.964-51.964
		s51.964,23.312,51.964,51.964S284.431,415.624,255.779,415.624z M255.779,319.689c-24.241,0-43.97,19.722-43.97,43.97
		c0,24.242,19.729,43.971,43.97,43.971c24.242,0,43.97-19.729,43.97-43.971C299.75,339.411,280.021,319.689,255.779,319.689z"/>
	<path style="fill:#3A3847;" d="M273.049,391.875c-0.64,0-1.28-0.148-1.865-0.461l-15.405-8.127l-15.403,8.127
		c-1.343,0.711-2.982,0.594-4.208-0.296c-1.233-0.891-1.851-2.413-1.601-3.912l2.928-17.191l-12.483-12.125
		c-1.085-1.062-1.483-2.646-1.015-4.09c0.46-1.453,1.709-2.507,3.216-2.733l17.27-2.568l7.714-15.63
		c1.343-2.732,5.824-2.732,7.167,0l7.713,15.63l17.27,2.568c1.507,0.227,2.756,1.28,3.217,2.733c0.469,1.443,0.07,3.028-1.015,4.09
		l-12.483,12.125l2.928,17.191c0.249,1.499-0.367,3.021-1.601,3.912C274.696,391.617,273.877,391.875,273.049,391.875z
		 M255.779,374.769c0.641,0,1.281,0.156,1.866,0.46l10.103,5.333l-1.921-11.273c-0.218-1.304,0.211-2.624,1.155-3.537l8.198-7.963
		l-11.352-1.687c-1.296-0.195-2.421-1.016-2.998-2.186l-5.051-10.243l-5.051,10.244c-0.578,1.17-1.702,1.99-2.998,2.186
		l-11.352,1.687l8.197,7.963c0.945,0.913,1.374,2.233,1.155,3.537l-1.92,11.273l10.102-5.333
		C254.499,374.926,255.14,374.769,255.779,374.769z"/>
	<path style="fill:#3A3847;" d="M159.845,511.559c-2.209,0-3.997-1.788-3.997-3.998v-3.997c0-2.21,1.788-3.997,3.997-3.997
		c2.21,0,3.998,1.787,3.998,3.997v3.997C163.842,509.771,162.055,511.559,159.845,511.559z"/>
	<path style="fill:#3A3847;" d="M175.834,511.559c-2.209,0-3.997-1.788-3.997-3.998v-3.997c0-2.21,1.788-3.997,3.997-3.997
		s3.997,1.787,3.997,3.997v3.997C179.831,509.771,178.044,511.559,175.834,511.559z"/>
	<path style="fill:#3A3847;" d="M191.823,511.559c-2.209,0-3.997-1.788-3.997-3.998v-3.997c0-2.21,1.788-3.997,3.997-3.997
		s3.997,1.787,3.997,3.997v3.997C195.821,509.771,194.032,511.559,191.823,511.559z"/>
	<path style="fill:#3A3847;" d="M207.813,511.559c-2.21,0-3.998-1.788-3.998-3.998v-3.997c0-2.21,1.788-3.997,3.998-3.997
		c2.209,0,3.997,1.787,3.997,3.997v3.997C211.81,509.771,210.022,511.559,207.813,511.559z"/>
	<path style="fill:#3A3847;" d="M223.801,511.559c-2.209,0-3.997-1.788-3.997-3.998v-3.997c0-2.21,1.788-3.997,3.997-3.997
		s3.998,1.787,3.998,3.997v3.997C227.799,509.771,226.011,511.559,223.801,511.559z"/>
	<path style="fill:#3A3847;" d="M239.791,511.559c-2.209,0-3.998-1.788-3.998-3.998v-3.997c0-2.21,1.788-3.997,3.998-3.997
		s3.998,1.787,3.998,3.997v3.997C243.788,509.771,242,511.559,239.791,511.559z"/>
	<path style="fill:#3A3847;" d="M255.779,511.559c-2.209,0-3.997-1.788-3.997-3.998v-3.997c0-2.21,1.788-3.997,3.997-3.997
		c2.209,0,3.998,1.787,3.998,3.997v3.997C259.777,509.771,257.989,511.559,255.779,511.559z"/>
	<path style="fill:#3A3847;" d="M271.768,511.559c-2.209,0-3.997-1.788-3.997-3.998v-3.997c0-2.21,1.788-3.997,3.997-3.997
		c2.21,0,3.997,1.787,3.997,3.997v3.997C275.765,509.771,273.978,511.559,271.768,511.559z"/>
	<path style="fill:#3A3847;" d="M287.758,511.559c-2.209,0-3.997-1.788-3.997-3.998v-3.997c0-2.21,1.788-3.997,3.997-3.997
		s3.997,1.787,3.997,3.997v3.997C291.755,509.771,289.967,511.559,287.758,511.559z"/>
	<path style="fill:#3A3847;" d="M303.747,511.559c-2.21,0-3.997-1.788-3.997-3.998v-3.997c0-2.21,1.787-3.997,3.997-3.997
		c2.209,0,3.997,1.787,3.997,3.997v3.997C307.744,509.771,305.956,511.559,303.747,511.559z"/>
	<path style="fill:#3A3847;" d="M319.736,511.559c-2.21,0-3.998-1.788-3.998-3.998v-3.997c0-2.21,1.788-3.997,3.998-3.997
		c2.209,0,3.997,1.787,3.997,3.997v3.997C323.733,509.771,321.945,511.559,319.736,511.559z"/>
	<path style="fill:#3A3847;" d="M335.724,511.559c-2.209,0-3.997-1.788-3.997-3.998v-3.997c0-2.21,1.788-3.997,3.997-3.997
		c2.21,0,3.998,1.787,3.998,3.997v3.997C339.722,509.771,337.934,511.559,335.724,511.559z"/>
	<path style="fill:#3A3847;" d="M351.715,511.559c-2.21,0-3.998-1.788-3.998-3.998v-3.997c0-2.21,1.788-3.997,3.998-3.997
		c2.209,0,3.997,1.787,3.997,3.997v3.997C355.712,509.771,353.924,511.559,351.715,511.559z"/>
</g>
<g>
</g>
<g>
</g>
<g>
</g>
<g>
</g>
<g>
</g>
<g>
</g>
<g>
</g>
<g>
</g>
<g>
</g>
<g>
</g>
<g>
</g>
<g>
</g>
<g>
</g>
<g>
</g>
<g>
</g>
</svg>
